<mxfile host="app.diagrams.net" modified="2022-07-01T02:01:17.603Z" agent="5.0 (Macintosh; Intel Mac OS X 10_15_7) AppleWebKit/605.1.15 (KHTML, like Gecko) Version/15.5 Safari/605.1.15" etag="8-cm93SBEgLElnNbYmZr" version="20.0.4" type="github">
  <diagram id="BJahUxutZIPAiGL8jbZM" name="Page-1">
    <mxGraphModel dx="770" dy="535" grid="1" gridSize="10" guides="1" tooltips="1" connect="1" arrows="1" fold="1" page="1" pageScale="1" pageWidth="827" pageHeight="1169" math="0" shadow="0">
      <root>
        <mxCell id="0" />
        <mxCell id="1" parent="0" />
        <mxCell id="2Bmoev-KnWv1xcNmbE7L-1" value="Frontend&lt;br&gt;(Vue3+package)" style="rounded=0;whiteSpace=wrap;html=1;sketch=1;" vertex="1" parent="1">
          <mxGeometry x="120" y="270" width="120" height="60" as="geometry" />
        </mxCell>
        <mxCell id="2Bmoev-KnWv1xcNmbE7L-2" value="Queue&lt;br&gt;（Kafka）" style="rounded=0;whiteSpace=wrap;html=1;sketch=1;" vertex="1" parent="1">
          <mxGeometry x="330" y="270" width="120" height="60" as="geometry" />
        </mxCell>
        <mxCell id="2Bmoev-KnWv1xcNmbE7L-3" value="用户注册审阅" style="rounded=0;whiteSpace=wrap;html=1;sketch=1;" vertex="1" parent="1">
          <mxGeometry x="530" y="190" width="120" height="60" as="geometry" />
        </mxCell>
        <mxCell id="2Bmoev-KnWv1xcNmbE7L-4" value="动画生成" style="rounded=0;whiteSpace=wrap;html=1;sketch=1;" vertex="1" parent="1">
          <mxGeometry x="660" y="190" width="120" height="60" as="geometry" />
        </mxCell>
        <mxCell id="2Bmoev-KnWv1xcNmbE7L-5" value="数据存储" style="rounded=0;whiteSpace=wrap;html=1;sketch=1;" vertex="1" parent="1">
          <mxGeometry x="530" y="270" width="120" height="60" as="geometry" />
        </mxCell>
        <mxCell id="2Bmoev-KnWv1xcNmbE7L-6" value="用户行为分析" style="rounded=0;whiteSpace=wrap;html=1;sketch=1;" vertex="1" parent="1">
          <mxGeometry x="660" y="270" width="120" height="60" as="geometry" />
        </mxCell>
        <mxCell id="2Bmoev-KnWv1xcNmbE7L-7" value="..." style="rounded=0;whiteSpace=wrap;html=1;sketch=1;" vertex="1" parent="1">
          <mxGeometry x="530" y="350" width="120" height="60" as="geometry" />
        </mxCell>
        <mxCell id="2Bmoev-KnWv1xcNmbE7L-8" value="K8S / DevSecOps / AutoTest / AutoDocument" style="rounded=0;whiteSpace=wrap;html=1;sketch=1;" vertex="1" parent="1">
          <mxGeometry x="120" y="430" width="660" height="60" as="geometry" />
        </mxCell>
        <mxCell id="2Bmoev-KnWv1xcNmbE7L-12" value="" style="endArrow=classic;html=1;rounded=0;exitX=1;exitY=0.5;exitDx=0;exitDy=0;entryX=0;entryY=0.5;entryDx=0;entryDy=0;sketch=1;curved=1;" edge="1" parent="1" source="2Bmoev-KnWv1xcNmbE7L-1" target="2Bmoev-KnWv1xcNmbE7L-2">
          <mxGeometry width="50" height="50" relative="1" as="geometry">
            <mxPoint x="270" y="380" as="sourcePoint" />
            <mxPoint x="320" y="330" as="targetPoint" />
          </mxGeometry>
        </mxCell>
        <mxCell id="2Bmoev-KnWv1xcNmbE7L-13" value="" style="endArrow=classic;html=1;rounded=0;entryX=0;entryY=0.5;entryDx=0;entryDy=0;sketch=1;curved=1;" edge="1" parent="1" source="2Bmoev-KnWv1xcNmbE7L-2" target="2Bmoev-KnWv1xcNmbE7L-5">
          <mxGeometry width="50" height="50" relative="1" as="geometry">
            <mxPoint x="450" y="350" as="sourcePoint" />
            <mxPoint x="520.7106781186548" y="300" as="targetPoint" />
          </mxGeometry>
        </mxCell>
      </root>
    </mxGraphModel>
  </diagram>
</mxfile>
